<svg width="157" height="122" viewBox="0 0 157 122" fill="none" xmlns="http://www.w3.org/2000/svg">
<g clip-path="url(#clip0_34_9)">
<path d="M155.398 49.7632H1.60205V75.4474H155.398V49.7632Z" stroke="white" stroke-width="3"/>
<path fill-rule="evenodd" clip-rule="evenodd" d="M96.9089 77.0526H56.8874C61.5852 82.9244 68.8034 86.6842 76.8982 86.6842C84.9929 86.6842 92.2114 82.9244 96.9089 77.0526ZM99.1015 48.1579H54.6948C59.1267 40.4809 67.4105 35.3158 76.8982 35.3158C86.3858 35.3158 94.6696 40.4809 99.1015 48.1579Z" fill="#D9D9D9" fill-opacity="0.5"/>
<mask id="mask0_34_9" style="mask-type:alpha" maskUnits="userSpaceOnUse" x="1" y="-12" width="155" height="155">
<path d="M155.434 -11.4375H1.56543V142.857H155.434V-11.4375Z" fill="white"/>
<path fill-rule="evenodd" clip-rule="evenodd" d="M96.9084 77.0526H56.8869C61.5847 82.9244 68.8029 86.6842 76.8977 86.6842C84.9925 86.6842 92.2109 82.9244 96.9084 77.0526ZM99.101 48.1579H54.6943C59.1262 40.4809 67.4101 35.3158 76.8977 35.3158C86.3853 35.3158 94.6691 40.4809 99.101 48.1579Z" fill="black"/>
</mask>
<g mask="url(#mask0_34_9)">
<path d="M99.4083 79.0608L96.9085 77.0526V77.0528L99.4083 79.0608ZM99.4083 79.0608L103.583 73.8421H96.9085H56.887H50.2122L54.3871 79.0608M99.4083 79.0608C94.129 85.6601 86.0056 89.8947 76.8977 89.8947C67.7898 89.8947 59.6665 85.6601 54.3871 79.0608M54.3871 79.0608L56.887 77.0528V77.0526L54.3871 79.0608ZM76.8977 83.4737C72.669 83.4737 68.7141 82.3024 65.3375 80.2632H88.4579C85.0813 82.3024 81.1264 83.4737 76.8977 83.4737ZM51.9209 46.5504L49.1392 51.3684H54.6944H99.101H104.656L101.875 46.5504C96.8934 37.9221 87.5753 32.1053 76.8977 32.1053C66.2201 32.1053 56.902 37.9221 51.9209 46.5504ZM92.5951 44.9474H61.2004C65.2478 40.9728 70.7887 38.5263 76.8977 38.5263C83.0067 38.5263 88.5476 40.9728 92.5951 44.9474Z" fill="white"/>
<path d="M99.4083 79.0608L96.9085 77.0526V77.0528L99.4083 79.0608ZM99.4083 79.0608L103.583 73.8421H96.9085H56.887H50.2122L54.3871 79.0608M99.4083 79.0608C94.129 85.6601 86.0056 89.8947 76.8977 89.8947C67.7898 89.8947 59.6665 85.6601 54.3871 79.0608M54.3871 79.0608L56.887 77.0528V77.0526L54.3871 79.0608ZM76.8977 83.4737C72.669 83.4737 68.7141 82.3024 65.3375 80.2632H88.4579C85.0813 82.3024 81.1264 83.4737 76.8977 83.4737ZM51.9209 46.5504L49.1392 51.3684H54.6944H99.101H104.656L101.875 46.5504C96.8934 37.9221 87.5753 32.1053 76.8977 32.1053C66.2201 32.1053 56.902 37.9221 51.9209 46.5504ZM92.5951 44.9474H61.2004C65.2478 40.9728 70.7887 38.5263 76.8977 38.5263C83.0067 38.5263 88.5476 40.9728 92.5951 44.9474Z" stroke="white"/>
<path fill-rule="evenodd" clip-rule="evenodd" d="M135.646 77.0526H132.318C125.375 101.159 103.192 118.789 76.8982 118.789C50.6048 118.789 28.4211 101.159 21.4789 77.0526H18.1506C25.1831 102.954 48.8208 122 76.8982 122C104.976 122 128.613 102.954 135.646 77.0526ZM136.424 48.1579H133.143C127.314 22.4225 104.345 3.21053 76.8982 3.21053C49.4507 3.21053 26.4818 22.4225 20.6538 48.1579H17.3721C23.2576 20.6351 47.6731 0 76.8982 0C106.123 0 130.539 20.6351 136.424 48.1579Z" fill="white"/>
<path d="M36.0357 34.0338C35.3584 33.8582 34.7413 33.9613 34.1841 34.3427C33.6291 34.7193 33.1975 35.3184 32.8893 36.1399C32.6727 36.7178 32.5737 37.2463 32.5929 37.725C32.6118 38.204 32.7294 38.6091 32.9454 38.9405C33.1617 39.2718 33.46 39.512 33.8409 39.6612C34.1591 39.781 34.4619 39.8125 34.7496 39.7559C35.0392 39.6946 35.3138 39.5678 35.573 39.3755C35.8275 39.1813 36.0671 38.9504 36.292 38.6827C36.5173 38.4152 36.7259 38.1385 36.9181 37.8527L37.814 36.5531C38.1645 36.0256 38.5541 35.5386 38.9828 35.092C39.4131 34.64 39.8816 34.2679 40.3881 33.9757C40.8966 33.6781 41.4439 33.4977 42.0293 33.4338C42.6147 33.3699 43.2379 33.4627 43.8992 33.7115C44.7938 34.0483 45.4958 34.5738 46.0049 35.2885C46.5092 36.0012 46.7902 36.8629 46.8479 37.8736C46.9027 38.8772 46.7002 39.9919 46.241 41.2171C45.7947 42.4075 45.2234 43.3716 44.5269 44.1097C43.8322 44.843 43.0395 45.3233 42.1488 45.5506C41.26 45.7731 40.301 45.7134 39.2722 45.3715L40.2946 42.6448C40.8412 42.805 41.3452 42.8072 41.8066 42.6512C42.2677 42.4952 42.6723 42.2181 43.02 41.8206C43.3692 41.4177 43.6525 40.9275 43.8691 40.3499C44.0949 39.7473 44.2036 39.1854 44.1943 38.665C44.1824 38.1375 44.0632 37.6836 43.8373 37.3028C43.6063 36.9204 43.2731 36.6443 42.8373 36.4748C42.4381 36.33 42.0661 36.3236 41.7217 36.4555C41.3724 36.5852 41.0331 36.8241 40.7041 37.1721C40.3721 37.5131 40.0338 37.9314 39.6893 38.4268L38.5894 39.9993C37.7938 41.1378 36.9306 41.9497 36.0002 42.4348C35.0665 42.9132 34.0527 42.9462 32.9592 42.5347C32.0595 42.1959 31.3631 41.6556 30.8701 40.913C30.379 40.1653 30.1058 39.2981 30.0504 38.3109C29.9901 37.3221 30.1606 36.2921 30.5621 35.2214C30.9692 34.1356 31.5147 33.2556 32.1988 32.5807C32.8797 31.8994 33.641 31.4499 34.4824 31.2325C35.319 31.0131 36.1703 31.0578 37.0357 31.3666L36.0357 34.0338Z" fill="white"/>
<path d="M55.5653 34.4538L45.6128 21.5043L50.459 17.7645C51.4519 16.9984 52.4272 16.5411 53.3856 16.3927C54.3481 16.241 55.251 16.3566 56.0949 16.7396C56.9399 17.1151 57.6781 17.7138 58.3099 18.5358C58.9482 19.3662 59.3407 20.2386 59.4871 21.153C59.6335 22.0674 59.5086 22.973 59.1122 23.8699C58.7127 24.7625 58.0142 25.5935 57.0171 26.3629L53.8053 28.8414L52.3231 26.9129L55.2196 24.6778C55.8002 24.2299 56.1978 23.7619 56.4125 23.2738C56.6271 22.7858 56.6867 22.2966 56.5913 21.8062C56.4999 21.3125 56.2779 20.8359 55.9245 20.3765C55.5714 19.917 55.1699 19.5821 54.7204 19.3718C54.2747 19.1583 53.7903 19.099 53.2667 19.1941C52.7441 19.2816 52.1908 19.551 51.6057 20.0023L49.4603 21.6579L57.9065 32.6472L55.5653 34.4538Z" fill="white"/>
<path d="M85.9003 17.512C85.9003 19.273 85.5709 20.7814 84.9125 22.037C84.2595 23.2873 83.3675 24.245 82.2364 24.9101C81.1108 25.5751 79.8337 25.9077 78.4053 25.9077C76.9773 25.9077 75.6975 25.5751 74.5665 24.9101C73.4409 24.2397 72.5489 23.2794 71.8905 22.0291C71.2371 20.7734 70.9106 19.2677 70.9106 17.512C70.9106 15.7509 71.2371 14.2452 71.8905 12.9949C72.5489 11.7393 73.4409 10.7789 74.5665 10.1138C75.6975 9.44877 76.9773 9.11626 78.4053 9.11626C79.8337 9.11626 81.1108 9.44877 82.2364 10.1138C83.3675 10.7789 84.2595 11.7393 84.9125 12.9949C85.5709 14.2452 85.9003 15.7509 85.9003 17.512ZM82.9295 17.512C82.9295 16.2723 82.7356 15.2268 82.3479 14.3755C81.9657 13.5189 81.4348 12.8725 80.7552 12.4362C80.0753 11.9946 79.2922 11.7738 78.4053 11.7738C77.5187 11.7738 76.7357 11.9946 76.0558 12.4362C75.3762 12.8725 74.8427 13.5189 74.455 14.3755C74.0728 15.2268 73.8815 16.2723 73.8815 17.512C73.8815 18.7516 74.0728 19.7998 74.455 20.6564C74.8427 21.5076 75.3762 22.1541 76.0558 22.5957C76.7357 23.032 77.5187 23.2501 78.4053 23.2501C79.2922 23.2501 80.0753 23.032 80.7552 22.5957C81.4348 22.1541 81.9657 21.5076 82.3479 20.6564C82.7356 19.7998 82.9295 18.7516 82.9295 17.512Z" fill="white"/>
<path d="M91.2964 29.1031L101.249 16.1535L106.095 19.8933C107.088 20.6594 107.788 21.475 108.196 22.34C108.607 23.2083 108.746 24.0875 108.611 24.9776C108.484 25.8667 108.103 26.7244 107.468 27.5505C106.83 28.381 106.099 28.9655 105.276 29.304C104.46 29.6416 103.584 29.7139 102.647 29.521C101.712 29.3239 100.749 28.8423 99.7558 28.0762L96.304 25.4126L97.801 23.4651L100.937 25.8852C101.518 26.3332 102.055 26.6199 102.548 26.7454C103.044 26.8667 103.501 26.8395 103.917 26.664C104.341 26.4874 104.73 26.1694 105.083 25.7099C105.436 25.2504 105.647 24.7886 105.715 24.3245C105.787 23.8561 105.703 23.3947 105.462 22.9404C105.225 22.4819 104.814 22.0271 104.229 21.5758L102.084 19.9202L93.6376 30.9096L91.2964 29.1031ZM102.482 28.3871L101.172 36.7236L98.5594 34.7077L99.9266 26.4151L102.482 28.3871Z" fill="white"/>
<path d="M117.447 31.9739L119.285 30.3103L128.009 39.9874L126.17 41.6511L122.791 37.9022L112.524 47.1944L110.56 45.0148L120.826 35.7229L117.447 31.9739Z" fill="white"/>
<path d="M38.6304 94.3089L49.9856 82.5751L54.4685 86.9308C55.3147 87.753 55.8885 88.5701 56.1903 89.3817C56.4992 90.1936 56.5713 90.9638 56.406 91.6926C56.2445 92.4249 55.8828 93.0815 55.3211 93.662C54.859 94.1394 54.372 94.4591 53.86 94.6213C53.3518 94.7799 52.8418 94.8139 52.3294 94.724C51.8174 94.6341 51.3265 94.4498 50.8565 94.1712L50.7456 94.2858C51.1391 94.7125 51.4137 95.2274 51.5694 95.8307C51.7325 96.4339 51.7328 97.0642 51.5701 97.7214C51.4076 98.3785 51.0379 99.0052 50.4614 99.6011C49.8735 100.208 49.1981 100.612 48.4352 100.812C47.6761 101.008 46.8661 100.958 46.0052 100.663C45.1446 100.368 44.2664 99.7851 43.3705 98.9147L38.6304 94.3089ZM42.4705 94.594L44.7521 96.8109C45.522 97.5589 46.2189 97.9506 46.8428 97.9862C47.4743 98.0215 48.0154 97.8064 48.4663 97.3403C48.8027 96.9929 49.0202 96.5961 49.1183 96.1508C49.2205 95.7013 49.1907 95.2428 49.0295 94.7751C48.8722 94.3034 48.5742 93.8546 48.1359 93.4286L45.7973 91.1565L42.4705 94.594ZM47.2775 89.6267L49.3762 91.6653C49.7421 92.0211 50.1366 92.2747 50.5595 92.4262C50.986 92.5739 51.4034 92.6051 51.8113 92.5197C52.2269 92.4343 52.6008 92.2195 52.9334 91.876C53.3733 91.4213 53.5755 90.8916 53.5399 90.2861C53.5082 89.6848 53.1798 89.0802 52.5547 88.4728L50.4102 86.3895L47.2775 89.6267Z" fill="white"/>
<path d="M70.8558 112.392H67.7017L73.444 96.0474H77.0919L82.8425 112.392H79.6884L75.3319 99.3992H75.2043L70.8558 112.392ZM70.9592 105.983H79.5609V108.362H70.9592V105.983Z" fill="white"/>
<path d="M105.707 103.239L94.3521 91.5054L98.7432 87.2387C99.643 86.3644 100.549 85.7878 101.462 85.5085C102.379 85.2253 103.267 85.2147 104.127 85.4761C104.987 85.7304 105.779 86.2315 106.503 86.9802C107.231 87.7328 107.703 88.5415 107.919 89.4064C108.135 90.2639 108.08 91.1433 107.755 92.0451C107.425 92.9431 106.811 93.8292 105.911 94.7031L102.784 97.7422L101.076 95.9774L103.918 93.2163C104.444 92.7052 104.804 92.214 105 91.743C105.191 91.2682 105.23 90.8117 105.116 90.3734C105.003 89.9278 104.745 89.4966 104.342 89.0802C103.939 88.6638 103.513 88.3884 103.065 88.2535C102.612 88.1148 102.145 88.1322 101.662 88.3052C101.175 88.4747 100.666 88.8166 100.136 89.3316L98.1921 91.2204L107.828 101.178L105.707 103.239ZM106.611 92.0445L114.656 94.5449L112.288 96.8449L104.296 94.2944L106.611 92.0445Z" fill="white"/>
<path d="M26.7747 67.421H10.7992V64.3389H21.5649V62.7401H10.7992V56.8263L8.58838 54.9771H26.7747V58.0784H16.009V59.658H26.7747V67.421ZM45.8307 54.9771V63.4336H35.0458V67.421H29.836V56.8263L27.6251 54.9771H45.8307ZM35.0458 58.0784V60.3515H40.6209V58.0784H35.0458ZM48.8727 56.8263V67.421H64.8675V54.9771H46.6619L48.8727 56.8263ZM54.0825 58.0784H59.6576V64.3389H54.0825V58.0784ZM83.9231 54.9771V63.1061H81.0587L83.9039 67.421H78.6748L75.7527 63.1061H73.1382V67.421H67.9283V56.8263L65.7175 54.9771H83.9231ZM73.1382 58.0784V60.024H78.7133V58.0784H73.1382ZM88.33 58.0784L84.7542 54.9771H102.133V58.0784H97.0195V67.421H91.8096V58.0784H88.33ZM105.194 56.8263L102.984 54.9771H110.404V67.421H105.194V56.8263ZM128.7 54.9771V63.6262L121.087 70.0216L113.359 63.6262V56.8263L111.225 54.9771H118.338V62.0274L121.049 64.3197L123.702 62.0274V54.9771H128.7ZM131.759 56.8263V67.421H147.754V54.9771H129.549L131.759 56.8263ZM136.969 58.0784H142.544V64.3389H136.969V58.0784Z" fill="white"/>
</g>
</g>
<defs>
<clipPath id="clip0_34_9">
<rect width="157" height="122" fill="white"/>
</clipPath>
</defs>
</svg>
