<svg width="49" height="38" viewBox="0 0 49 38" fill="none" xmlns="http://www.w3.org/2000/svg">
<rect x="0.5" y="15.5" width="48" height="8" stroke="black"/>
<mask id="path-2-outside-1_5_3" maskUnits="userSpaceOnUse" x="15.0703" y="10" width="18" height="18" fill="black">
<rect fill="white" x="15.0703" y="10" width="18" height="18"/>
<path fill-rule="evenodd" clip-rule="evenodd" d="M30.2454 24H17.7546C19.2208 25.8289 21.4736 27 24 27C26.5264 27 28.7793 25.8289 30.2454 24ZM30.9297 15H17.0703C18.4535 12.6088 21.0389 11 24 11C26.9611 11 29.5465 12.6088 30.9297 15Z"/>
</mask>
<path fill-rule="evenodd" clip-rule="evenodd" d="M30.2454 24H17.7546C19.2208 25.8289 21.4736 27 24 27C26.5264 27 28.7793 25.8289 30.2454 24ZM30.9297 15H17.0703C18.4535 12.6088 21.0389 11 24 11C26.9611 11 29.5465 12.6088 30.9297 15Z" fill="#D9D9D9" fill-opacity="0.5"/>
<path d="M30.2454 24L31.0256 24.6255L32.3286 23H30.2454V24ZM17.7546 24V23H15.6714L16.9744 24.6255L17.7546 24ZM17.0703 15L16.2047 14.4993L15.3365 16H17.0703V15ZM30.9297 15V16H32.6635L31.7954 14.4993L30.9297 15ZM30.2454 23H17.7546V25H30.2454V23ZM24 26C21.7899 26 19.8194 24.9769 18.5349 23.3745L16.9744 24.6255C18.6221 26.681 21.1574 28 24 28V26ZM29.4651 23.3745C28.1806 24.9769 26.2101 26 24 26V28C26.8426 28 29.3779 26.681 31.0256 24.6255L29.4651 23.3745ZM17.0703 16H30.9297V14H17.0703V16ZM17.9359 15.5007C19.1477 13.4058 21.4103 12 24 12V10C20.6675 10 17.7593 11.8118 16.2047 14.4993L17.9359 15.5007ZM24 12C26.5897 12 28.8523 13.4058 30.0641 15.5007L31.7954 14.4993C30.2407 11.8118 27.3325 10 24 10V12Z" fill="black" mask="url(#path-2-outside-1_5_3)"/>
<path fill-rule="evenodd" clip-rule="evenodd" d="M42.3352 24H41.2965C39.1298 31.5086 32.2062 37 24 37C15.7938 37 8.87022 31.5086 6.70353 24H5.66476C7.85963 32.0677 15.237 38 24 38C32.763 38 40.1404 32.0677 42.3352 24ZM42.5782 15H41.554C39.735 6.98405 32.5663 1 24 1C15.4336 1 8.26495 6.98405 6.44603 15H5.42179C7.25869 6.42733 14.8788 0 24 0C33.1212 0 40.7413 6.42733 42.5782 15Z" fill="black"/>
<path d="M11.2468 10.6007C11.0354 10.546 10.8428 10.5781 10.6689 10.6969C10.4957 10.8142 10.361 11.0008 10.2648 11.2567C10.1972 11.4367 10.1663 11.6013 10.1723 11.7504C10.1782 11.8996 10.2149 12.0258 10.2823 12.129C10.3498 12.2322 10.4429 12.307 10.5618 12.3535C10.6611 12.3908 10.7556 12.4006 10.8454 12.383C10.9358 12.3639 11.0215 12.3244 11.1024 12.2645C11.1818 12.204 11.2566 12.1321 11.3268 12.0487C11.3971 11.9654 11.4622 11.8792 11.5222 11.7902L11.8018 11.3854C11.9112 11.2211 12.0328 11.0694 12.1666 10.9303C12.3009 10.7895 12.4471 10.6736 12.6052 10.5826C12.7639 10.4899 12.9347 10.4337 13.1174 10.4138C13.3001 10.3939 13.4946 10.4228 13.701 10.5003C13.9802 10.6052 14.1993 10.7689 14.3582 10.9915C14.5156 11.2135 14.6033 11.4819 14.6213 11.7967C14.6384 12.1093 14.5752 12.4565 14.4319 12.8381C14.2926 13.2089 14.1143 13.5092 13.8969 13.7391C13.6801 13.9675 13.4327 14.1171 13.1547 14.1879C12.8773 14.2572 12.578 14.2386 12.2569 14.1321L12.576 13.2828C12.7466 13.3327 12.9039 13.3334 13.0479 13.2848C13.1918 13.2362 13.3181 13.1499 13.4266 13.0261C13.5356 12.9006 13.624 12.7479 13.6916 12.568C13.7621 12.3803 13.796 12.2053 13.7931 12.0432C13.7894 11.8789 13.7522 11.7375 13.6817 11.6189C13.6096 11.4998 13.5056 11.4138 13.3696 11.361C13.245 11.3159 13.1289 11.3139 13.0214 11.355C12.9124 11.3954 12.8065 11.4698 12.7038 11.5782C12.6002 11.6844 12.4946 11.8147 12.3871 11.969L12.0438 12.4588C11.7955 12.8134 11.5261 13.0663 11.2357 13.2174C10.9443 13.3664 10.6279 13.3767 10.2866 13.2485C10.0058 13.143 9.78848 12.9747 9.63461 12.7434C9.48133 12.5105 9.39605 12.2404 9.37877 11.9329C9.35994 11.6249 9.41318 11.3041 9.53848 10.9706C9.66553 10.6324 9.83579 10.3583 10.0493 10.1481C10.2618 9.93587 10.4994 9.79587 10.762 9.72814C11.0231 9.65982 11.2888 9.67375 11.5589 9.76992L11.2468 10.6007Z" fill="black"/>
<path d="M17.3421 10.7315L14.2359 6.69805L15.7484 5.53322C16.0583 5.29459 16.3627 5.15216 16.6618 5.10592C16.9622 5.05867 17.244 5.09468 17.5074 5.21397C17.7711 5.33093 18.0015 5.51742 18.1987 5.77345C18.3979 6.03211 18.5204 6.30384 18.5661 6.58865C18.6118 6.87346 18.5728 7.15554 18.4491 7.43488C18.3244 7.71292 18.1064 7.97175 17.7952 8.21139L16.7928 8.9834L16.3302 8.38271L17.2342 7.68654C17.4154 7.54701 17.5395 7.40124 17.6065 7.24923C17.6735 7.09723 17.6921 6.94485 17.6623 6.79209C17.6338 6.63832 17.5645 6.48988 17.4542 6.34677C17.344 6.20365 17.2187 6.09935 17.0784 6.03385C16.9393 5.96734 16.7881 5.94888 16.6247 5.97848C16.4616 6.00575 16.2889 6.08966 16.1063 6.23021L15.4367 6.74589L18.0728 10.1688L17.3421 10.7315Z" fill="black"/>
<path d="M26.8097 5.45455C26.8097 6.00308 26.7069 6.47289 26.5014 6.86399C26.2976 7.25343 26.0192 7.55173 25.6662 7.75888C25.3149 7.96603 24.9163 8.0696 24.4705 8.0696C24.0248 8.0696 23.6254 7.96603 23.2724 7.75888C22.9211 7.55007 22.6427 7.25095 22.4372 6.86151C22.2333 6.47041 22.1314 6.00142 22.1314 5.45455C22.1314 4.90601 22.2333 4.43703 22.4372 4.04759C22.6427 3.65649 22.9211 3.35736 23.2724 3.15021C23.6254 2.94306 24.0248 2.83949 24.4705 2.83949C24.9163 2.83949 25.3149 2.94306 25.6662 3.15021C26.0192 3.35736 26.2976 3.65649 26.5014 4.04759C26.7069 4.43703 26.8097 4.90601 26.8097 5.45455ZM25.8825 5.45455C25.8825 5.06842 25.822 4.74278 25.701 4.47763C25.5817 4.21082 25.416 4.00947 25.2039 3.87358C24.9917 3.73603 24.7473 3.66726 24.4705 3.66726C24.1938 3.66726 23.9494 3.73603 23.7372 3.87358C23.5251 4.00947 23.3586 4.21082 23.2376 4.47763C23.1183 4.74278 23.0586 5.06842 23.0586 5.45455C23.0586 5.84067 23.1183 6.16714 23.2376 6.43395C23.3586 6.6991 23.5251 6.90045 23.7372 7.038C23.9494 7.17389 24.1938 7.24183 24.4705 7.24183C24.7473 7.24183 24.9917 7.17389 25.2039 7.038C25.416 6.90045 25.5817 6.6991 25.701 6.43395C25.822 6.16714 25.8825 5.84067 25.8825 5.45455Z" fill="black"/>
<path d="M28.4938 9.06489L31.6 5.03143L33.1125 6.19626C33.4224 6.43489 33.6409 6.68893 33.7681 6.95837C33.8966 7.22883 33.9398 7.50268 33.8978 7.77991C33.8582 8.05684 33.7392 8.32398 33.5411 8.58132C33.3419 8.83998 33.1138 9.02203 32.8569 9.12747C32.6023 9.23262 32.3287 9.25515 32.0362 9.19507C31.7446 9.13368 31.4439 8.98367 31.134 8.74504L30.0567 7.9154L30.5239 7.3088L31.5027 8.06261C31.6839 8.20215 31.8515 8.29146 32.0054 8.33055C32.1604 8.36832 32.3029 8.35986 32.4328 8.30517C32.5651 8.25017 32.6864 8.15112 32.7966 8.00801C32.9068 7.86489 32.9726 7.72105 32.994 7.57647C33.0164 7.43058 32.9901 7.28688 32.915 7.14538C32.8409 7.00257 32.7126 6.86089 32.5301 6.72034L31.8605 6.20466L29.2245 9.62758L28.4938 9.06489ZM31.985 8.8419L31.576 11.4385L30.7606 10.8106L31.1873 8.22764L31.985 8.8419Z" fill="black"/>
<path d="M36.6555 9.9591L37.2292 9.44091L39.9518 12.4551L39.3781 12.9733L38.3233 11.8056L35.1191 14.6999L34.5059 14.021L37.7102 11.1268L36.6555 9.9591Z" fill="black"/>
<path d="M12.0566 29.3749L15.6006 25.7201L16.9997 27.0768C17.2638 27.3329 17.4429 27.5874 17.5371 27.8402C17.6335 28.0931 17.656 28.333 17.6044 28.56C17.554 28.7881 17.4411 28.9926 17.2658 29.1734C17.1216 29.3221 16.9696 29.4217 16.8098 29.4722C16.6512 29.5216 16.492 29.5322 16.3321 29.5042C16.1723 29.4762 16.0191 29.4188 15.8724 29.332L15.8378 29.3677C15.9606 29.5006 16.0463 29.661 16.0949 29.8489C16.1458 30.0368 16.1459 30.2331 16.0951 30.4378C16.0444 30.6425 15.929 30.8377 15.7491 31.0233C15.5656 31.2124 15.3548 31.3381 15.1167 31.4004C14.8798 31.4615 14.627 31.446 14.3583 31.3541C14.0897 31.2621 13.8156 31.0806 13.536 30.8095L12.0566 29.3749ZM13.2551 29.4637L13.9672 30.1542C14.2075 30.3872 14.425 30.5092 14.6197 30.5203C14.8168 30.5313 14.9857 30.4643 15.1264 30.3191C15.2314 30.2109 15.2993 30.0873 15.3299 29.9486C15.3618 29.8086 15.3525 29.6658 15.3022 29.5201C15.2531 29.3732 15.1601 29.2334 15.0233 29.1007L14.2934 28.393L13.2551 29.4637ZM14.7554 27.9165L15.4104 28.5515C15.5246 28.6623 15.6477 28.7413 15.7797 28.7885C15.9128 28.8345 16.0431 28.8442 16.1704 28.8176C16.3001 28.791 16.4168 28.7241 16.5206 28.6171C16.6579 28.4755 16.721 28.3105 16.7099 28.1219C16.7 27.9346 16.5975 27.7463 16.4024 27.5571L15.7331 26.9082L14.7554 27.9165Z" fill="black"/>
<path d="M22.1142 35.0073H21.1298L22.922 29.9164H24.0605L25.8553 35.0073H24.8709L23.5112 30.9604H23.4714L22.1142 35.0073ZM22.1465 33.0112H24.8311V33.752H22.1465V33.0112Z" fill="black"/>
<path d="M32.9913 32.1565L29.4474 28.5017L30.8179 27.1727C31.0987 26.9004 31.3815 26.7208 31.6665 26.6338C31.9526 26.5456 32.2299 26.5423 32.4982 26.6237C32.7665 26.7029 33.0137 26.859 33.2398 27.0922C33.4671 27.3266 33.6144 27.5785 33.6817 27.8479C33.7491 28.115 33.732 28.3889 33.6304 28.6698C33.5276 28.9495 33.3359 29.2255 33.0551 29.4977L32.0789 30.4443L31.546 29.8946L32.4329 29.0346C32.5971 28.8754 32.7096 28.7224 32.7705 28.5757C32.8302 28.4278 32.8423 28.2856 32.8069 28.1491C32.7715 28.0103 32.691 27.876 32.5652 27.7463C32.4395 27.6166 32.3066 27.5308 32.1666 27.4888C32.0255 27.4456 31.8795 27.451 31.7287 27.5049C31.5767 27.5577 31.418 27.6642 31.2526 27.8246L30.6459 28.4129L33.6534 31.5145L32.9913 32.1565ZM33.2735 28.6696L35.7842 29.4484L35.0454 30.1648L32.5508 29.3704L33.2735 28.6696Z" fill="black"/>
<path d="M8.35639 21H3.37039V20.04H6.73039V19.542H3.37039V17.7L2.68039 17.124H8.35639V18.09H4.99639V18.582H8.35639V21ZM14.3038 17.124V19.758H10.9378V21H9.3118V17.7L8.6218 17.124H14.3038ZM10.9378 18.09V18.798H12.6778V18.09H10.9378ZM15.2532 17.7V21H20.2452V17.124H14.5632L15.2532 17.7ZM16.8792 18.09H18.6192V20.04H16.8792V18.09ZM26.1925 17.124V19.656H25.2985L26.1865 21H24.5545L23.6425 19.656H22.8265V21H21.2005V17.7L20.5105 17.124H26.1925ZM22.8265 18.09V18.696H24.5665V18.09H22.8265ZM27.5679 18.09L26.4519 17.124H31.8759V18.09H30.2799V21H28.6539V18.09H27.5679ZM32.8313 17.7L32.1413 17.124H34.4573V21H32.8313V17.7ZM40.1675 17.124V19.818L37.7915 21.81L35.3795 19.818V17.7L34.7135 17.124H36.9335V19.32L37.7795 20.034L38.6075 19.32V17.124H40.1675ZM41.1223 17.7V21H46.1143V17.124H40.4323L41.1223 17.7ZM42.7483 18.09H44.4883V20.04H42.7483V18.09Z" fill="black"/>
</svg>
